<?xml version="1.0" encoding="UTF-8" standalone="no"?>
<svg width="211.667mm" height="105.833mm"
 viewBox="0 0 600 300"
 xmlns="http://www.w3.org/2000/svg" xmlns:xlink="http://www.w3.org/1999/xlink"  version="1.2" baseProfile="tiny">
<title>ElaTrendChart</title>
<desc>Generated with Qt</desc>
<defs>
</defs>
<g fill="none" stroke="black" stroke-width="1" fill-rule="evenodd" stroke-linecap="square" stroke-linejoin="bevel" >

<g fill="#fdfdfd" fill-opacity="1" stroke="none" transform="matrix(1,0,0,1,0,0)"
font-family="Microsoft YaHei" font-size="13" font-weight="400" font-style="normal" 
>
<rect x="0" y="0" width="600" height="300"/>
</g>

<g fill="none" stroke="#e5e5e5" stroke-opacity="1" stroke-width="1" stroke-linecap="square" stroke-linejoin="bevel" transform="matrix(1,0,0,1,0,0)"
font-family="Microsoft YaHei" font-size="13" font-weight="400" font-style="normal" 
>
<polyline fill="none" vector-effect="none" points="50,10 50,269 " />
<polyline fill="none" vector-effect="none" points="130,10 130,269 " />
<polyline fill="none" vector-effect="none" points="210,10 210,269 " />
<polyline fill="none" vector-effect="none" points="290,10 290,269 " />
<polyline fill="none" vector-effect="none" points="370,10 370,269 " />
<polyline fill="none" vector-effect="none" points="450,10 450,269 " />
<polyline fill="none" vector-effect="none" points="530,10 530,269 " />
<polyline fill="none" vector-effect="none" points="50,269 589,269 " />
<polyline fill="none" vector-effect="none" points="50,229 589,229 " />
<polyline fill="none" vector-effect="none" points="50,190 589,190 " />
<polyline fill="none" vector-effect="none" points="50,151 589,151 " />
<polyline fill="none" vector-effect="none" points="50,112 589,112 " />
<polyline fill="none" vector-effect="none" points="50,73 589,73 " />
<polyline fill="none" vector-effect="none" points="50,34 589,34 " />
</g>

<g fill="none" stroke="#0072bd" stroke-opacity="1" stroke-width="2" stroke-linecap="round" stroke-linejoin="round" transform="matrix(1,0,0,1,50,10)"
font-family="Microsoft YaHei" font-size="13" font-weight="400" font-style="normal" 
>
<path vector-effect="none" fill-rule="evenodd" d="M-212,133 L-204,111 L-196,124 L-188,130 L-180,156 L-172,117 L-164,95 L-156,137 L-148,111 L-140,140 L-132,147 L-124,153 L-116,112 L-108,151 L-100,148 L-92,90 L-84,93 L-76,128 L-68,89 L-60,126 L-52,117 L-45,127 L-37,79 L-29,65 L-21,115 L-13,87 L-5,99 L3,47 L11,93 L19,117 L27,101 L35,49 L43,105 L51,98 L59,78 L67,100 L75,45 L83,86 L91,30 L99,62 L107,92 L115,20 L123,75 L131,39 L139,16 L147,17 L155,52 L163,34 L171,62 L179,56 L187,60 L195,2 L203,-9 L211,15 L219,14 L227,-7 L235,53 L243,44 L251,28 L259,22 L267,-23 L275,44 L283,11 L291,-21 L300,-14 L308,-37 L316,-7 L324,5 L332,-25 L340,-46 L348,-22 L356,5 L364,-50 L372,3 L380,7 L388,-34 L396,-64 L404,-19 L412,-41 L420,-56 L428,-29 L436,-46 L444,-17 L452,-84 L460,-66 L468,-80 L476,-26 L484,-29 L492,-75 L500,-54 L508,-53 L516,-54 L524,-69 L532,-85 L540,-84 L548,-96 L556,-71 L564,-100 L572,-95 L580,-92"/>
</g>

<g fill="none" stroke="#d95319" stroke-opacity="1" stroke-width="2" stroke-linecap="round" stroke-linejoin="round" transform="matrix(1,0,0,1,50,10)"
font-family="Microsoft YaHei" font-size="13" font-weight="400" font-style="normal" 
>
<path vector-effect="none" fill-rule="evenodd" d="M-212,226 L-204,161 L-196,251 L-188,172 L-180,198 L-172,205 L-164,160 L-156,225 L-148,174 L-140,204 L-132,155 L-124,146 L-116,236 L-108,199 L-100,206 L-92,182 L-84,124 L-76,210 L-68,221 L-60,122 L-52,131 L-45,189 L-37,139 L-29,165 L-21,151 L-13,211 L-5,134 L3,138 L11,121 L19,160 L27,167 L35,134 L43,101 L51,122 L59,139 L67,138 L75,113 L83,174 L91,175 L99,193 L107,136 L115,125 L123,146 L131,148 L139,169 L147,166 L155,76 L163,186 L171,75 L179,165 L187,75 L195,166 L203,151 L211,154 L219,79 L227,130 L235,137 L243,150 L251,70 L259,83 L267,84 L275,153 L283,79 L291,123 L300,61 L308,89 L316,79 L324,105 L332,46 L340,54 L348,153 L356,49 L364,111 L372,151 L380,145 L388,112 L396,78 L404,118 L412,142 L420,53 L428,132 L436,100 L444,38 L452,113 L460,123 L468,72 L476,32 L484,124 L492,61 L500,45 L508,14 L516,45 L524,50 L532,95 L540,49 L548,30 L556,45 L564,58 L572,72 L580,102"/>
</g>

<g fill="none" stroke="#edb120" stroke-opacity="1" stroke-width="2" stroke-linecap="round" stroke-linejoin="round" transform="matrix(1,0,0,1,50,10)"
font-family="Microsoft YaHei" font-size="13" font-weight="400" font-style="normal" 
>
<path vector-effect="none" fill-rule="evenodd" d="M-212,67 L-204,76 L-196,43 L-188,54 L-180,97 L-172,50 L-164,47 L-156,57 L-148,32 L-140,56 L-132,70 L-124,81 L-116,81 L-108,49 L-100,33 L-92,67 L-84,71 L-76,33 L-68,43 L-60,49 L-52,12 L-45,13 L-37,27 L-29,12 L-21,39 L-13,53 L-5,33 L3,1 L11,52 L19,-1 L27,29 L35,46 L43,21 L51,34 L59,35 L67,34 L75,15 L83,27 L91,14 L99,-11 L107,-21 L115,-32 L123,-18 L131,-22 L139,-6 L147,-23 L155,-12 L163,-43 L171,4 L179,-47 L187,-10 L195,-6 L203,-44 L211,-10 L219,-10 L227,-55 L235,-51 L243,-30 L251,-44 L259,-39 L267,-42 L275,-32 L283,-44 L291,-40 L300,-67 L308,-46 L316,-54 L324,-61 L332,-85 L340,-67 L348,-87 L356,-87 L364,-78 L372,-78 L380,-75 L388,-41 L396,-45 L404,-69 L412,-73 L420,-81 L428,-67 L436,-55 L444,-93 L452,-74 L460,-91 L468,-59 L476,-84 L484,-108 L492,-85 L500,-89 L508,-84 L516,-118 L524,-97 L532,-129 L540,-83 L548,-130 L556,-99 L564,-91 L572,-123 L580,-122"/>
</g>

<g fill="none" stroke="#e5e5e5" stroke-opacity="1" stroke-width="1" stroke-linecap="square" stroke-linejoin="bevel" transform="matrix(1,0,0,1,0,0)"
font-family="Microsoft YaHei" font-size="13" font-weight="400" font-style="normal" 
>
</g>

<g fill="none" stroke="#000000" stroke-opacity="1" stroke-width="1" stroke-linecap="square" stroke-linejoin="bevel" transform="matrix(1,0,0,1,0,0)"
font-family="Microsoft YaHei" font-size="10" font-weight="400" font-style="normal" 
>
<text fill="#000000" fill-opacity="1" stroke="none" xml:space="preserve" x="44" y="284" font-family="Microsoft YaHei" font-size="10" font-weight="400" font-style="normal" 
 >27</text>
<text fill="#000000" fill-opacity="1" stroke="none" xml:space="preserve" x="124" y="284" font-family="Microsoft YaHei" font-size="10" font-weight="400" font-style="normal" 
 >37</text>
<text fill="#000000" fill-opacity="1" stroke="none" xml:space="preserve" x="204" y="284" font-family="Microsoft YaHei" font-size="10" font-weight="400" font-style="normal" 
 >47</text>
<text fill="#000000" fill-opacity="1" stroke="none" xml:space="preserve" x="284" y="284" font-family="Microsoft YaHei" font-size="10" font-weight="400" font-style="normal" 
 >57</text>
<text fill="#000000" fill-opacity="1" stroke="none" xml:space="preserve" x="364" y="284" font-family="Microsoft YaHei" font-size="10" font-weight="400" font-style="normal" 
 >67</text>
<text fill="#000000" fill-opacity="1" stroke="none" xml:space="preserve" x="444" y="284" font-family="Microsoft YaHei" font-size="10" font-weight="400" font-style="normal" 
 >77</text>
<text fill="#000000" fill-opacity="1" stroke="none" xml:space="preserve" x="524" y="284" font-family="Microsoft YaHei" font-size="10" font-weight="400" font-style="normal" 
 >87</text>
<text fill="#000000" fill-opacity="1" stroke="none" xml:space="preserve" x="33" y="274" font-family="Microsoft YaHei" font-size="10" font-weight="400" font-style="normal" 
 >41</text>
<text fill="#000000" fill-opacity="1" stroke="none" xml:space="preserve" x="33" y="234" font-family="Microsoft YaHei" font-size="10" font-weight="400" font-style="normal" 
 >46</text>
<text fill="#000000" fill-opacity="1" stroke="none" xml:space="preserve" x="33" y="195" font-family="Microsoft YaHei" font-size="10" font-weight="400" font-style="normal" 
 >51</text>
<text fill="#000000" fill-opacity="1" stroke="none" xml:space="preserve" x="33" y="156" font-family="Microsoft YaHei" font-size="10" font-weight="400" font-style="normal" 
 >56</text>
<text fill="#000000" fill-opacity="1" stroke="none" xml:space="preserve" x="33" y="117" font-family="Microsoft YaHei" font-size="10" font-weight="400" font-style="normal" 
 >61</text>
<text fill="#000000" fill-opacity="1" stroke="none" xml:space="preserve" x="33" y="78" font-family="Microsoft YaHei" font-size="10" font-weight="400" font-style="normal" 
 >66</text>
<text fill="#000000" fill-opacity="1" stroke="none" xml:space="preserve" x="33" y="39" font-family="Microsoft YaHei" font-size="10" font-weight="400" font-style="normal" 
 >71</text>
</g>

<g fill="#fdfdfd" fill-opacity="1" stroke="#fdfdfd" stroke-opacity="1" stroke-width="1" stroke-linecap="square" stroke-linejoin="bevel" transform="matrix(1,0,0,1,0,0)"
font-family="Microsoft YaHei" font-size="10" font-weight="400" font-style="normal" 
>
<path vector-effect="none" fill-rule="evenodd" d="M508,19 C508,16.7909 509.791,15 512,15 L580,15 C582.209,15 584,16.7909 584,19 L584,95 C584,97.2091 582.209,99 580,99 L512,99 C509.791,99 508,97.2091 508,95 L508,19"/>
</g>

<g fill="#fdfdfd" fill-opacity="1" stroke="#e5e5e5" stroke-opacity="1" stroke-width="1" stroke-linecap="square" stroke-linejoin="bevel" transform="matrix(1,0,0,1,0,0)"
font-family="Microsoft YaHei" font-size="10" font-weight="400" font-style="normal" 
>
<path vector-effect="none" fill-rule="evenodd" d="M508,19 C508,16.7909 509.791,15 512,15 L580,15 C582.209,15 584,16.7909 584,19 L584,95 C584,97.2091 582.209,99 580,99 L512,99 C509.791,99 508,97.2091 508,95 L508,19"/>
</g>

<g fill="#0072bd" fill-opacity="1" stroke="none" transform="matrix(1,0,0,1,0,0)"
font-family="Microsoft YaHei" font-size="11" font-weight="400" font-style="normal" 
>
<rect x="516" y="29" width="20" height="6"/>
</g>

<g fill="#0072bd" fill-opacity="1" stroke="#000000" stroke-opacity="1" stroke-width="1" stroke-linecap="square" stroke-linejoin="bevel" transform="matrix(1,0,0,1,0,0)"
font-family="Microsoft YaHei" font-size="11" font-weight="400" font-style="normal" 
>
<text fill="#000000" fill-opacity="1" stroke="none" xml:space="preserve" x="542" y="37" font-family="Microsoft YaHei" font-size="11" font-weight="400" font-style="normal" 
 >系列</text>
<text fill="#000000" fill-opacity="1" stroke="none" xml:space="preserve" x="564" y="37" font-family="Microsoft YaHei" font-size="11" font-weight="400" font-style="normal" 
 >A</text>
</g>

<g fill="#d95319" fill-opacity="1" stroke="none" transform="matrix(1,0,0,1,0,0)"
font-family="Microsoft YaHei" font-size="11" font-weight="400" font-style="normal" 
>
<rect x="516" y="53" width="20" height="6"/>
</g>

<g fill="#d95319" fill-opacity="1" stroke="#000000" stroke-opacity="1" stroke-width="1" stroke-linecap="square" stroke-linejoin="bevel" transform="matrix(1,0,0,1,0,0)"
font-family="Microsoft YaHei" font-size="11" font-weight="400" font-style="normal" 
>
<text fill="#000000" fill-opacity="1" stroke="none" xml:space="preserve" x="542" y="61" font-family="Microsoft YaHei" font-size="11" font-weight="400" font-style="normal" 
 >系列</text>
<text fill="#000000" fill-opacity="1" stroke="none" xml:space="preserve" x="564" y="61" font-family="Microsoft YaHei" font-size="11" font-weight="400" font-style="normal" 
 >B</text>
</g>

<g fill="#edb120" fill-opacity="1" stroke="none" transform="matrix(1,0,0,1,0,0)"
font-family="Microsoft YaHei" font-size="11" font-weight="400" font-style="normal" 
>
<rect x="516" y="77" width="20" height="6"/>
</g>

<g fill="#edb120" fill-opacity="1" stroke="#000000" stroke-opacity="1" stroke-width="1" stroke-linecap="square" stroke-linejoin="bevel" transform="matrix(1,0,0,1,0,0)"
font-family="Microsoft YaHei" font-size="11" font-weight="400" font-style="normal" 
>
<text fill="#000000" fill-opacity="1" stroke="none" xml:space="preserve" x="542" y="85" font-family="Microsoft YaHei" font-size="11" font-weight="400" font-style="normal" 
 >系列</text>
<text fill="#000000" fill-opacity="1" stroke="none" xml:space="preserve" x="564" y="85" font-family="Microsoft YaHei" font-size="11" font-weight="400" font-style="normal" 
 >C</text>
</g>
</g>
</svg>
